<svg width="86" height="86" viewBox="0 0 86 86" fill="none" xmlns="http://www.w3.org/2000/svg">
<g clip-path="url(#clip0)">
<path d="M71.4375 85.6564H7.45313C6.51036 85.6564 5.60621 85.2819 4.93958 84.6153C4.27295 83.9487 3.89844 83.0445 3.89844 82.1017V21.6721L25.2266 0.343933H71.4375C72.3803 0.343933 73.2844 0.718444 73.9511 1.38508C74.6177 2.05171 74.9922 2.95586 74.9922 3.89862V82.1017C74.9922 83.0445 74.6177 83.9487 73.9511 84.6153C73.2844 85.2819 72.3803 85.6564 71.4375 85.6564Z" fill="#E6F9FE"/>
<path d="M18.1172 78.5471C17.1744 78.5471 16.2703 78.1725 15.6036 77.5059C14.937 76.8393 14.5625 75.9351 14.5625 74.9924V11.008L3.89844 21.6721V82.1017C3.89844 83.0445 4.27295 83.9487 4.93958 84.6153C5.60621 85.2819 6.51036 85.6564 7.45313 85.6564H71.4375C72.3803 85.6564 73.2844 85.2819 73.9511 84.6153C74.6177 83.9487 74.9922 83.0445 74.9922 82.1017V78.5471H18.1172Z" fill="#CCF2FE"/>
<path d="M25.2266 0.343933V18.1174C25.2266 19.0601 24.8521 19.9643 24.1854 20.6309C23.5188 21.2975 22.6146 21.6721 21.6719 21.6721H3.89844L25.2266 0.343933Z" fill="#99E6FD"/>
<path d="M59.3833 66.7661L63.2002 62.9491L82.0906 81.8395L78.2737 85.6565L59.3833 66.7661Z" fill="#01C0F9"/>
<path d="M45.1077 72.9537C58.5234 72.9537 69.399 62.0781 69.399 48.6624C69.399 35.2467 58.5234 24.3711 45.1077 24.3711C31.692 24.3711 20.8164 35.2467 20.8164 48.6624C20.8164 62.0781 31.692 72.9537 45.1077 72.9537Z" fill="url(#paint0_linear)"/>
<path d="M45.1076 75.6528C39.7694 75.6528 34.5511 74.0698 30.1125 71.1041C25.674 68.1383 22.2146 63.923 20.1717 58.9912C18.1289 54.0593 17.5944 48.6325 18.6358 43.3969C19.6772 38.1613 22.2478 33.352 26.0225 29.5774C29.7972 25.8027 34.6064 23.2321 39.842 22.1907C45.0776 21.1493 50.5045 21.6838 55.4363 23.7266C60.3682 25.7694 64.5835 29.2288 67.5492 33.6674C70.5149 38.1059 72.0979 43.3242 72.0979 48.6624C72.0899 55.8182 69.2437 62.6787 64.1837 67.7386C59.1238 72.7985 52.2634 75.6447 45.1076 75.6528ZM45.1076 27.0701C40.837 27.0701 36.6624 28.3365 33.1115 30.7091C29.5607 33.0817 26.7932 36.4539 25.1589 40.3994C23.5246 44.3449 23.097 48.6864 23.9302 52.8749C24.7633 57.0634 26.8198 60.9107 29.8395 63.9305C32.8592 66.9502 36.7066 69.0067 40.8951 69.8398C45.0836 70.673 49.4251 70.2454 53.3706 68.6111C57.316 66.9768 60.6883 64.2093 63.0609 60.6585C65.4335 57.1076 66.6998 52.933 66.6998 48.6624C66.6934 42.9378 64.4164 37.4494 60.3685 33.4015C56.3206 29.3535 50.8322 27.0766 45.1076 27.0701Z" fill="#CCF2FE"/>
<path d="M54.0601 44.0158C56.0233 44.0158 57.6147 42.4243 57.6147 40.4611C57.6147 38.4979 56.0233 36.9064 54.0601 36.9064C52.0969 36.9064 50.5054 38.4979 50.5054 40.4611C50.5054 42.4243 52.0969 44.0158 54.0601 44.0158Z" fill="white"/>
</g>
<defs>
<linearGradient id="paint0_linear" x1="23.292" y1="71.2593" x2="36.7758" y2="17.2602" gradientUnits="userSpaceOnUse">
<stop stop-color="#4059D1"/>
<stop offset="1" stop-color="#11DF99"/>
</linearGradient>
<clipPath id="clip0">
<rect width="85.3125" height="85.3125" fill="white" transform="translate(0.34375 0.343933)"/>
</clipPath>
</defs>
</svg>
