<svg width="84" height="84" viewBox="0 0 84 84" fill="none" xmlns="http://www.w3.org/2000/svg">
<g opacity="0.96" clip-path="url(#clip0)">
<path d="M42.0001 0.000183125C35.8361 -4.61265e-05 29.8443 2.03371 24.9541 5.786C20.0638 9.53829 16.5484 14.7994 14.9531 20.7533C13.3578 26.7073 13.7717 33.0212 16.1307 38.7159C18.4896 44.4106 22.6618 49.1678 28.0001 52.2495V59.5002C28.0001 60.4284 28.3688 61.3187 29.0252 61.9751C29.6816 62.6314 30.5718 63.0002 31.5001 63.0002H52.5001C53.4283 63.0002 54.3186 62.6314 54.9749 61.9751C55.6313 61.3187 56.0001 60.4284 56.0001 59.5002V52.2495C61.3383 49.1678 65.5105 44.4106 67.8695 38.7159C70.2285 33.0212 70.6424 26.7073 69.0471 20.7533C67.4517 14.7994 63.9363 9.53829 59.0461 5.786C54.1558 2.03371 48.164 -4.61265e-05 42.0001 0.000183125V0.000183125Z" fill="url(#paint0_linear)"/>
<path d="M49 24.5001V29.6271L42 34.2935L35 29.6271V24.5001H28V31.5001C28.0001 32.0763 28.1424 32.6435 28.4143 33.1515C28.6862 33.6595 29.0794 34.0925 29.5588 34.4121L38.5 40.373V59.5001H45.5V40.373L54.4416 34.4121C54.921 34.0924 55.3141 33.6594 55.5859 33.1514C55.8578 32.6435 56 32.0762 56 31.5001V24.5001H49Z" fill="#CCF2FE"/>
<path d="M56 56.0001H28C27.0717 56.0001 26.1815 56.3688 25.5251 57.0252C24.8687 57.6816 24.5 58.5718 24.5 59.5001V73.5001C24.5032 76.2838 25.6105 78.9527 27.579 80.9211C29.5474 82.8895 32.2162 83.9968 35 84H49C51.7838 83.9968 54.4526 82.8895 56.421 80.9211C58.3895 78.9527 59.4968 76.2838 59.5 73.5001V59.5001C59.5 58.5718 59.1313 57.6816 58.4749 57.0252C57.8185 56.3688 56.9283 56.0001 56 56.0001Z" fill="#E6F9FE"/>
<path d="M45.5 80.5C42.7162 80.4968 40.0474 79.3895 38.079 77.4211C36.1105 75.4527 35.0032 72.7838 35 70.0001V56.0001H28C27.0717 56.0001 26.1815 56.3688 25.5251 57.0252C24.8687 57.6816 24.5 58.5718 24.5 59.5001V73.5001C24.5032 76.2838 25.6105 78.9527 27.579 80.9211C29.5474 82.8895 32.2162 83.9968 35 84H49C50.4761 84.0004 51.9357 83.6888 53.2829 83.0856C54.6302 82.4824 55.8348 81.6013 56.8177 80.5H45.5Z" fill="#CCF2FE"/>
<path d="M24.5 66.5001H59.5V73.5001H24.5V66.5001Z" fill="#99E6FD"/>
<path d="M52.5 21.0001C54.433 21.0001 56 19.4331 56 17.5001C56 15.5671 54.433 14.0001 52.5 14.0001C50.567 14.0001 49 15.5671 49 17.5001C49 19.4331 50.567 21.0001 52.5 21.0001Z" fill="white"/>
<path d="M77 24.5004H84V31.5004H77V24.5004Z" fill="#01C0F9"/>
<path d="M71.0142 15.0294L78.013 8.03061L82.962 12.9796L75.9632 19.9784L71.0142 15.0294Z" fill="#01C0F9"/>
<path d="M71.0132 40.9792L75.9622 36.0302L82.961 43.029L78.012 47.978L71.0132 40.9792Z" fill="#01C0F9"/>
<path d="M0 24.5004H7V31.5004H0V24.5004Z" fill="#01C0F9"/>
<path d="M1.02393 12.9742L5.97293 8.02524L12.9717 15.0241L8.02274 19.9731L1.02393 12.9742Z" fill="#01C0F9"/>
<path d="M1.02148 43.0201L8.0203 36.0213L12.9693 40.9703L5.97049 47.9691L1.02148 43.0201Z" fill="#01C0F9"/>
</g>
<defs>
<linearGradient id="paint0_linear" x1="16.8527" y1="60.8029" x2="36.221" y2="-8.14632" gradientUnits="userSpaceOnUse">
<stop stop-color="#4059D1"/>
<stop offset="1" stop-color="#11DF99"/>
</linearGradient>
<clipPath id="clip0">
<rect width="84" height="84" fill="white" transform="translate(0 0.000183105)"/>
</clipPath>
</defs>
</svg>
