<svg width="72" height="86" viewBox="0 0 72 86" fill="none" xmlns="http://www.w3.org/2000/svg">
<path d="M67.9922 7.45338C58.447 7.45338 42.218 5.08951 38.5136 1.38508C38.1835 1.05498 37.7917 0.793125 37.3604 0.614474C36.9291 0.435823 36.4668 0.343872 36 0.343872C35.5332 0.343872 35.0709 0.435823 34.6396 0.614474C34.2084 0.793125 33.8165 1.05498 33.4864 1.38508C29.782 5.08951 13.553 7.45338 4.00781 7.45338C3.06505 7.45338 2.1609 7.82789 1.49427 8.49452C0.827636 9.16115 0.453125 10.0653 0.453125 11.0081V50.1096C0.453125 54.8978 5.89624 59.0319 15.5161 65.928C22.2585 70.757 32.4453 78.0584 32.4453 82.1018C32.4453 83.0446 32.8198 83.9487 33.4865 84.6154C34.1531 85.282 35.0572 85.6565 36 85.6565C36.9428 85.6565 37.8469 85.282 38.5135 84.6154C39.1802 83.9487 39.5547 83.0446 39.5547 82.1018C39.5547 78.0584 49.7415 70.757 56.4839 65.928C66.1038 59.0319 71.5469 54.8978 71.5469 50.1096V11.0081C71.5469 10.0653 71.1724 9.16115 70.5057 8.49452C69.8391 7.82789 68.935 7.45338 67.9922 7.45338Z" fill="#E6F9FE"/>
<path d="M29.7349 62.3732C20.115 55.4771 14.6719 51.343 14.6719 46.5549V7.45331C14.6719 7.21454 14.6959 6.97637 14.7434 6.74237C11.1815 7.18505 7.59702 7.42242 4.00781 7.45331C3.06505 7.45331 2.1609 7.82782 1.49427 8.49445C0.827636 9.16108 0.453125 10.0652 0.453125 11.008V50.1096C0.453125 54.8977 5.89624 59.0318 15.5161 65.9279C22.2585 70.757 32.4453 78.0583 32.4453 82.1017C32.4453 83.0445 32.8198 83.9487 33.4865 84.6153C34.1531 85.2819 35.0572 85.6564 36 85.6564C36.9428 85.6564 37.8469 85.2819 38.5135 84.6153C39.1802 83.9487 39.5547 83.0445 39.5547 82.1017C39.5547 80.2066 41.7901 77.5979 44.8596 74.8626C41.6324 70.8982 34.7376 65.9555 29.7349 62.3732Z" fill="#CCF2FE"/>
<path d="M57.6996 17.5004C55.0909 17.2263 52.5413 16.8783 50.1219 16.4593C44.8694 15.5533 40.706 14.4269 37.3939 13.0153C36.9532 12.8274 36.4791 12.7306 36 12.7306C35.5209 12.7306 35.0468 12.8274 34.6061 13.0153C31.294 14.4269 27.1306 15.5533 21.8786 16.4593C19.4587 16.8761 16.9091 17.2263 14.3004 17.5004C13.4268 17.5922 12.6181 18.0042 12.0303 18.657C11.4425 19.3098 11.1172 20.1571 11.1172 21.0355V47.4229C11.1173 47.9161 11.2201 48.4039 11.419 48.8552C11.6179 49.3065 11.9086 49.7115 12.2725 50.0445C14.4684 52.0542 18.6638 55.061 21.7293 57.2578C25.8389 60.2029 30.089 63.2479 33.6521 66.3827C34.3011 66.9536 35.1357 67.2684 36 67.2684C36.8643 67.2684 37.699 66.9536 38.3479 66.3827C41.911 63.2479 46.1611 60.2029 50.273 57.256C53.3362 55.061 57.5316 52.0542 59.7275 50.0445C60.0914 49.7115 60.3821 49.3065 60.581 48.8552C60.7799 48.4039 60.8827 47.9161 60.8828 47.4229V21.0355C60.8828 20.1571 60.5575 19.3098 59.9697 18.657C59.3819 18.0042 58.5732 17.5922 57.6996 17.5004Z" fill="url(#paint0_linear)"/>
<path d="M32.4454 50.1097C31.7443 50.1102 31.0588 49.9023 30.4761 49.5126L19.812 42.4032L23.7555 36.4882L31.7091 41.7896L43.8884 26.5599L49.4399 31.0033L35.2211 48.7767C34.8882 49.193 34.4658 49.529 33.9853 49.7598C33.5048 49.9906 32.9784 50.1102 32.4454 50.1097Z" fill="white"/>
<defs>
<linearGradient id="paint0_linear" x1="13.6531" y1="65.3663" x2="30.0478" y2="5.45483" gradientUnits="userSpaceOnUse">
<stop stop-color="#4059D1"/>
<stop offset="1" stop-color="#11DF99"/>
</linearGradient>
</defs>
</svg>
