<svg width="86" height="86" viewBox="0 0 86 86" fill="none" xmlns="http://www.w3.org/2000/svg">
<g clip-path="url(#clip0)">
<path d="M58.1454 85.6565C45.4671 85.6565 30.7156 79.2282 18.7442 67.256C-0.612785 47.899 -5.48052 21.2702 7.8949 7.89567C21.2703 -5.47885 47.8982 -0.613829 67.2552 18.745C86.6123 38.1038 91.48 64.7308 78.1046 78.1053C73.0027 83.2091 65.9642 85.6565 58.1454 85.6565ZM27.8902 7.48882C21.7983 7.48882 16.6476 9.37208 13.0086 13.0093C8.09562 17.9232 6.38323 25.5973 8.19145 34.6194C10.0982 44.1758 15.6639 53.9475 23.8579 62.1423C32.0519 70.3372 41.8244 75.902 51.3809 77.8088C60.4048 79.617 68.0762 77.8992 72.9891 72.9881C77.9021 68.0769 79.6163 60.4037 77.808 51.3816C75.9013 41.8252 70.3356 32.0535 62.1416 23.8587C53.9476 15.6638 44.1751 10.099 34.6186 8.19222C32.4044 7.73708 30.1507 7.50147 27.8902 7.48882Z" fill="#99E6FD"/>
<path d="M27.8541 85.6565C20.0308 85.6565 12.9977 83.21 7.8949 78.1053C-5.48052 64.7308 -0.612785 38.102 18.7442 18.745C38.1013 -0.61202 64.7328 -5.47885 78.1046 7.89567C91.4764 21.2702 86.6123 47.899 67.2552 67.256C55.2848 79.2264 40.5324 85.6565 27.8541 85.6565ZM58.1093 7.48882C55.8488 7.50147 53.5951 7.73708 51.3809 8.19221C41.8244 10.099 32.0528 15.6647 23.8579 23.8587C15.663 32.0526 10.0982 41.8252 8.19145 51.3816C6.38323 60.4037 8.10104 68.0778 13.0122 72.9899C17.9233 77.9019 25.5956 79.617 34.6186 77.8088C44.1751 75.902 53.9467 70.3363 62.1416 62.1423C70.3365 53.9484 75.9013 44.1758 77.808 34.6194C79.6163 25.5973 77.8984 17.9232 72.9873 13.0111C69.3528 9.37208 64.2003 7.48882 58.1093 7.48882Z" fill="url(#paint0_linear)"/>
<path d="M78.1047 78.1053L72.9911 72.9916C83.5456 62.4361 78.6788 40.3957 62.1417 23.8586C45.6046 7.32146 23.5615 2.45463 13.0087 13.0092L7.89502 7.89557C21.2677 -5.47985 47.8983 -0.613923 67.2554 18.7449C86.6124 38.1037 91.4801 64.7307 78.1047 78.1053Z" fill="#99E6FD"/>
<path d="M44.5898 38.0439L30.3711 30.9345C29.8291 30.6635 29.2269 30.5356 28.6215 30.5628C28.0162 30.59 27.4278 30.7716 26.9124 31.0901C26.3969 31.4087 25.9715 31.8538 25.6764 32.3831C25.3814 32.9123 25.2265 33.5083 25.2266 34.1142V51.8876C25.2265 52.5478 25.4103 53.195 25.7573 53.7566C26.1044 54.3182 26.6009 54.772 27.1914 55.0673L41.4102 62.1767C41.9522 62.4477 42.5544 62.5757 43.1598 62.5484C43.7651 62.5212 44.3534 62.3397 44.8689 62.0211C45.3843 61.7025 45.8098 61.2574 46.1049 60.7282C46.3999 60.1989 46.5548 59.603 46.5547 58.997V41.2236C46.5548 40.5634 46.371 39.9163 46.0239 39.3547C45.6769 38.793 45.1803 38.3392 44.5898 38.0439Z" fill="#99E6FD"/>
<path d="M59.0849 31.0927C58.5695 30.7741 57.9812 30.5926 57.3758 30.5654C56.7705 30.5382 56.1682 30.6662 55.6262 30.9372L43 37.2494V62.5517C43.5519 62.5518 44.0962 62.4234 44.5898 62.1767L58.8086 55.0673C59.399 54.772 59.8956 54.3182 60.2427 53.7566C60.5897 53.195 60.7735 52.5478 60.7734 51.8876V34.1142C60.7728 33.5084 60.6173 32.9129 60.3218 32.3841C60.0263 31.8553 59.6005 31.4108 59.0849 31.0927Z" fill="#CCF2FE"/>
<path d="M60.3915 32.5275C60.0504 31.839 59.495 31.2798 58.8088 30.9341L44.59 23.8247C44.0964 23.5779 43.5521 23.4494 43.0002 23.4494C42.4483 23.4494 41.904 23.5779 41.4104 23.8247L27.1916 30.9341C26.5054 31.2798 25.95 31.839 25.6089 32.5275L43.0002 41.2232L60.3915 32.5275Z" fill="#E6F9FE"/>
<path d="M35.002 47.444L29.6699 44.778V34.5582L35.002 37.2242V47.444Z" fill="#67D9FB"/>
<path d="M35.002 37.2242L29.6699 34.5582L39.001 30.1149L44.7773 32.3365L35.002 37.2242Z" fill="#CCF2FE"/>
</g>
<defs>
<linearGradient id="paint0_linear" x1="4.69087" y1="82.6811" x2="28.3688" y2="-12.1417" gradientUnits="userSpaceOnUse">
<stop stop-color="#4059D1"/>
<stop offset="1" stop-color="#11DF99"/>
</linearGradient>
<clipPath id="clip0">
<rect width="85.312" height="85.3125" fill="white" transform="translate(0.34375 0.343933)"/>
</clipPath>
</defs>
</svg>
