<svg width="70" height="70" viewBox="0 0 70 70" fill="none" xmlns="http://www.w3.org/2000/svg">
<g clip-path="url(#clip0)">
<path d="M35 29.1666C43.0541 29.1666 49.5833 22.6375 49.5833 14.5833C49.5833 6.52915 43.0541 -3.05176e-05 35 -3.05176e-05C26.9458 -3.05176e-05 20.4166 6.52915 20.4166 14.5833C20.4166 22.6375 26.9458 29.1666 35 29.1666Z" fill="#CCF2FE"/>
<path d="M40.8333 26.25C37.8311 26.2511 34.9017 25.3253 32.4455 23.599C29.9892 21.8727 28.1259 19.4301 27.11 16.605C26.0942 13.7799 25.9754 10.71 26.7699 7.81486C27.5643 4.91969 29.2333 2.34041 31.5488 0.429443C29.419 0.947515 27.4335 1.93928 25.7401 3.33093C24.0467 4.72257 22.689 6.47824 21.768 8.46724C20.847 10.4563 20.3865 12.6274 20.4208 14.819C20.4551 17.0106 20.9832 19.1662 21.966 21.1255C22.9487 23.0847 24.3606 24.7971 26.0967 26.1351C27.8328 27.4731 29.8484 28.4023 31.9933 28.8535C34.1382 29.3047 36.3573 29.2663 38.4854 28.7412C40.6134 28.2161 42.5956 27.2177 44.2844 25.8205C43.1554 26.1013 41.9967 26.2455 40.8333 26.25Z" fill="#99E6FD"/>
<path d="M46.6666 29.1667H23.3333C21.0134 29.1692 18.7893 30.0918 17.1489 31.7322C15.5085 33.3726 14.5858 35.5968 14.5833 37.9167V61.25C14.5833 62.0235 14.8906 62.7654 15.4376 63.3124C15.9845 63.8594 16.7264 64.1667 17.4999 64.1667H52.5C53.2735 64.1667 54.0154 63.8594 54.5623 63.3124C55.1093 62.7654 55.4166 62.0235 55.4166 61.25V37.9167C55.4141 35.5968 54.4914 33.3726 52.851 31.7322C51.2106 30.0918 48.9865 29.1692 46.6666 29.1667Z" fill="#CCF2FE"/>
<path d="M23.3333 61.25V37.9167C23.3358 35.5968 24.2585 33.3726 25.8989 31.7322C27.5393 30.0918 29.7634 29.1692 32.0833 29.1667H23.3333C21.0134 29.1692 18.7893 30.0918 17.1489 31.7322C15.5085 33.3726 14.5858 35.5968 14.5833 37.9167V61.25C14.5833 62.0235 14.8906 62.7654 15.4376 63.3124C15.9845 63.8594 16.7264 64.1667 17.4999 64.1667H26.2499C25.4764 64.1667 24.7345 63.8594 24.1876 63.3124C23.6406 62.7654 23.3333 62.0235 23.3333 61.25Z" fill="#99E6FD"/>
<path d="M62.787 45.4628C61.1347 44.0825 56.6248 41.5129 49.5833 46.3305C42.5403 41.5121 38.0311 44.0839 36.3795 45.4628C32.9882 48.2927 31.7858 53.7024 33.6955 57.5276C36.758 63.6526 48.4312 69.5931 48.9263 69.8432C49.1299 69.9458 49.3546 69.9992 49.5826 69.9992C49.8105 69.9992 50.0352 69.9458 50.2388 69.8432C50.7339 69.5931 62.4071 63.6518 65.4696 57.5276C67.3822 53.7045 66.1784 48.2927 62.787 45.4628Z" fill="url(#paint0_linear)"/>
<path d="M58.3333 55.4166C59.9442 55.4166 61.25 54.1108 61.25 52.5C61.25 50.8891 59.9442 49.5833 58.3333 49.5833C56.7225 49.5833 55.4167 50.8891 55.4167 52.5C55.4167 54.1108 56.7225 55.4166 58.3333 55.4166Z" fill="white"/>
</g>
<defs>
<linearGradient id="paint0_linear" x1="39.057" y1="63.7867" x2="60.1095" y2="42.7342" gradientUnits="userSpaceOnUse">
<stop stop-color="#3C82C5"/>
<stop offset="1" stop-color="#1FD3A3"/>
</linearGradient>
<clipPath id="clip0">
<rect width="70" height="70" fill="white"/>
</clipPath>
</defs>
</svg>
