<svg width="70" height="70" viewBox="0 0 70 70" fill="none" xmlns="http://www.w3.org/2000/svg">
<g clip-path="url(#clip0)">
<path d="M44.5938 48.7302L48.7184 44.6055L69.132 65.0191L65.0073 69.1438L44.5938 48.7302Z" fill="#01C0F9"/>
<path d="M29.1667 55.4166C43.6641 55.4166 55.4167 43.6641 55.4167 29.1666C55.4167 14.6691 43.6641 2.9166 29.1667 2.9166C14.6692 2.9166 2.91666 14.6691 2.91666 29.1666C2.91666 43.6641 14.6692 55.4166 29.1667 55.4166Z" fill="url(#paint0_linear)"/>
<path d="M29.1666 58.3332C23.398 58.3332 17.7589 56.6227 12.9625 53.4178C8.16608 50.2129 4.42772 45.6577 2.22016 40.3282C0.0126069 34.9987 -0.56499 29.1342 0.560412 23.4765C1.68581 17.8187 4.46367 12.6217 8.5427 8.54264C12.6217 4.46361 17.8187 1.68575 23.4765 0.560351C29.1343 -0.565051 34.9987 0.0125459 40.3283 2.2201C45.6578 4.42766 50.213 8.16602 53.4178 12.9625C56.6227 17.7589 58.3333 23.398 58.3333 29.1666C58.3246 36.8994 55.2489 44.313 49.781 49.7809C44.3131 55.2489 36.8995 58.3246 29.1666 58.3332ZM29.1666 5.83325C24.5518 5.83325 20.0405 7.20173 16.2033 9.76563C12.3662 12.3295 9.3755 15.9737 7.60946 20.2373C5.84342 24.5009 5.38134 29.1925 6.28166 33.7187C7.18198 38.2449 9.40427 42.4025 12.6675 45.6657C15.9307 48.929 20.0883 51.1513 24.6145 52.0516C29.1408 52.9519 33.8323 52.4898 38.0959 50.7238C42.3595 48.9577 46.0037 45.967 48.5676 42.1299C51.1315 38.2927 52.5 33.7815 52.5 29.1666C52.493 22.9803 50.0325 17.0494 45.6581 12.6751C41.2838 8.30076 35.3529 5.8402 29.1666 5.83325Z" fill="#CCF2FE"/>
<path d="M40.8333 14.5833H17.5C15.8891 14.5833 14.5833 15.8891 14.5833 17.4999V40.8333C14.5833 42.4441 15.8891 43.75 17.5 43.75H40.8333C42.4441 43.75 43.75 42.4441 43.75 40.8333V17.4999C43.75 15.8891 42.4441 14.5833 40.8333 14.5833Z" fill="#E6F9FE"/>
<path d="M20.4166 37.9166V14.5833H17.5C16.7264 14.5833 15.9846 14.8906 15.4376 15.4376C14.8906 15.9845 14.5833 16.7264 14.5833 17.4999V40.8333C14.5833 41.6068 14.8906 42.3487 15.4376 42.8957C15.9846 43.4427 16.7264 43.75 17.5 43.75H40.8333C41.6069 43.75 42.3487 43.4427 42.8957 42.8957C43.4427 42.3487 43.75 41.6068 43.75 40.8333H23.3333C22.5598 40.8333 21.8179 40.526 21.2709 39.979C20.7239 39.432 20.4166 38.6902 20.4166 37.9166Z" fill="#CCF2FE"/>
<path d="M26.25 14.5833H32.0833V26.25H26.25V14.5833Z" fill="#67D9FB"/>
</g>
<defs>
<linearGradient id="paint0_linear" x1="10.605" y1="47.7283" x2="47.7283" y2="10.6049" gradientUnits="userSpaceOnUse">
<stop stop-color="#3A8BC2"/>
<stop offset="1" stop-color="#24C8A9"/>
</linearGradient>
<clipPath id="clip0">
<rect width="70" height="70" fill="white"/>
</clipPath>
</defs>
</svg>
