<svg width="70" height="70" viewBox="0 0 70 70" fill="none" xmlns="http://www.w3.org/2000/svg">
<g clip-path="url(#clip0)">
<path d="M69.4721 33.3265C69.2032 32.9426 68.8456 32.6291 68.4298 32.4127C68.014 32.1963 67.5521 32.0833 67.0834 32.0833H29.1667C28.568 32.0833 27.9838 32.2675 27.4935 32.611C27.0031 32.9545 26.6304 33.4405 26.4258 34.0032L14.7591 66.0865C14.5989 66.527 14.5472 66.9997 14.6085 67.4645C14.6698 67.9293 14.8422 68.3725 15.1112 68.7565C15.3801 69.1404 15.7376 69.4539 16.1535 69.6704C16.5693 69.8869 17.0312 69.9999 17.5 69.9999H55.4167C56.0154 69.9999 56.5996 69.8156 57.0899 69.4722C57.5803 69.1287 57.953 68.6426 58.1576 68.08L69.8243 35.9967C69.9845 35.5561 70.0362 35.0833 69.9749 34.6185C69.9136 34.1537 69.7411 33.7105 69.4721 33.3265Z" fill="url(#paint0_linear)"/>
<path d="M40.6086 32.0833L35.2084 45.5838C35.0315 46.0264 34.9657 46.5055 35.0168 46.9794C35.0679 47.4532 35.2343 47.9073 35.5016 48.302C35.7688 48.6966 36.1286 49.0197 36.5496 49.2431C36.9706 49.4665 37.44 49.5833 37.9166 49.5833H46.6666C47.2495 49.5833 47.8191 49.4086 48.3019 49.0817C48.7846 48.7548 49.1583 48.2908 49.3747 47.7495L55.208 33.1661C55.346 32.8218 55.4168 32.4543 55.4166 32.0833H40.6086Z" fill="url(#paint1_linear)"/>
<path d="M40.4942 34.9999L35.2042 48.1147C35.0309 48.5446 34.9664 49.0101 35.0165 49.4704C35.0665 49.9307 35.2296 50.3718 35.4913 50.7552C35.7531 51.1386 36.1056 51.4525 36.518 51.6695C36.9304 51.8865 37.3902 51.9999 37.8571 51.9999H46.4285C46.9996 51.9999 47.5576 51.8302 48.0305 51.5127C48.5033 51.1951 48.8694 50.7443 49.0814 50.2185L54.7957 36.0518C54.9309 35.7173 55.0002 35.3603 55 34.9999H40.4942Z" fill="white"/>
<path d="M69.1455 9.60382L60.3955 0.853821L56.2713 4.97945L60.0418 8.74997H46.6667V14.5833H60.0418L56.2713 18.3538L60.3955 22.4794L69.1455 13.7294C69.4164 13.4586 69.6314 13.137 69.778 12.7831C69.9247 12.4291 70.0001 12.0498 70.0001 11.6666C70.0001 11.2835 69.9247 10.9041 69.778 10.5502C69.6314 10.1963 69.4164 9.87467 69.1455 9.60382Z" fill="#99E6FD"/>
<path d="M45.8121 18.3538L37.0621 9.60382L32.9379 13.7294L36.7085 17.5H23.3333V23.3333H36.7085L32.9379 27.1038L37.0621 31.2294L45.8121 22.4794C46.0831 22.2086 46.298 21.887 46.4447 21.5331C46.5913 21.1791 46.6668 20.7998 46.6668 20.4166C46.6668 20.0335 46.5913 19.6541 46.4447 19.3002C46.298 18.9463 46.0831 18.6247 45.8121 18.3538Z" fill="#34CDFA"/>
<path d="M22.4787 32.9372L13.7287 24.1872L9.60458 28.3128L13.3751 32.0833H-7.62939e-06V37.9167H13.3751L9.60458 41.6872L13.7287 45.8128L22.4787 37.0628C22.7497 36.792 22.9647 36.4704 23.1113 36.1164C23.258 35.7625 23.3334 35.3831 23.3334 35C23.3334 34.6169 23.258 34.2375 23.1113 33.8836C22.9647 33.5296 22.7497 33.208 22.4787 32.9372Z" fill="#99E6FD"/>
<path d="M-7.62939e-06 17.5H14.5833V23.3333H-7.62939e-06V17.5Z" fill="#25C7A9"/>
<path d="M8.74999 8.74998H29.1667V14.5833H8.74999V8.74998Z" fill="#3A8CC2"/>
</g>
<defs>
<linearGradient id="paint0_linear" x1="73.5" y1="33.4999" x2="12" y2="69.9999" gradientUnits="userSpaceOnUse">
<stop stop-color="#E6F9FE"/>
<stop offset="0.0001" stop-color="#22CDA6"/>
<stop offset="1" stop-color="#3B86C4"/>
</linearGradient>
<linearGradient id="paint1_linear" x1="36.1002" y1="48.9752" x2="54.2032" y2="30.8722" gradientUnits="userSpaceOnUse">
<stop stop-color="#28BEAD"/>
<stop offset="0.984375" stop-color="#28BEAD"/>
</linearGradient>
<clipPath id="clip0">
<rect width="70" height="70" fill="white"/>
</clipPath>
</defs>
</svg>
