<svg width="70" height="70" viewBox="0 0 70 70" fill="none" xmlns="http://www.w3.org/2000/svg">
<g clip-path="url(#clip0)">
<path d="M26.25 5.8333C11.7753 5.8333 -4.90558e-05 16.3005 -4.90558e-05 29.1666C0.0281095 34.8044 2.25124 40.2095 6.19787 44.2356C4.74537 47.142 3.14703 49.121 1.61141 49.891C1.02356 50.1848 0.552158 50.6685 0.273619 51.2638C-0.00492014 51.859 -0.074272 52.5309 0.0768043 53.1705C0.227881 53.81 0.59053 54.3799 1.10597 54.7876C1.62141 55.1952 2.25943 55.4169 2.91662 55.4166C8.41607 55.5242 13.8463 54.1764 18.6571 51.5098C21.1339 52.1706 23.6866 52.5035 26.25 52.5C40.7246 52.5 52.5 42.0328 52.5 29.1666C52.5 16.3005 40.7246 5.8333 26.25 5.8333Z" fill="#CCF2FE"/>
<path d="M32.0833 49.5833C17.586 49.5833 5.83329 39.1365 5.83329 26.25C5.83329 18.5981 9.97641 11.8074 16.3778 7.55194C6.7812 11.0271 -4.90558e-05 19.4038 -4.90558e-05 29.1666C0.0281095 34.8044 2.25124 40.2095 6.19787 44.2356C4.74537 47.142 3.14703 49.121 1.61141 49.891C1.02356 50.1848 0.552158 50.6685 0.273619 51.2638C-0.00492014 51.859 -0.074272 52.5309 0.0768043 53.1705C0.227881 53.81 0.59053 54.3799 1.10597 54.7876C1.62141 55.1952 2.25943 55.4169 2.91662 55.4166C8.41607 55.5242 13.8463 54.1764 18.6571 51.5098C21.1339 52.1706 23.6866 52.5035 26.25 52.5C31.802 52.5306 37.2407 50.9289 41.8899 47.8938C38.7425 49.0168 35.425 49.5883 32.0833 49.5833Z" fill="#99E6FD"/>
<path d="M68.3878 61.5576C66.8521 60.7898 65.2523 58.8087 63.8013 55.9022C67.7482 51.8763 69.9716 46.4711 69.9999 40.8333C69.9999 27.9671 58.2246 17.4999 43.7499 17.4999C29.2753 17.4999 17.4999 27.9671 17.4999 40.8333C17.4999 53.6994 29.2753 64.1666 43.7499 64.1666C46.3133 64.1702 48.866 63.8372 51.3428 63.1764C56.1536 65.8431 61.5838 67.1909 67.0833 67.0833C67.7404 67.0834 68.3783 66.8616 68.8936 66.4539C69.4089 66.0461 69.7715 65.4763 69.9224 64.8367C70.0734 64.1972 70.004 63.5254 69.7255 62.9302C69.4469 62.3351 68.9756 61.8514 68.3878 61.5576Z" fill="url(#paint0_linear)"/>
<path d="M40.8334 40.8333H46.6667V52.5H40.8334V40.8333Z" fill="white"/>
<path d="M43.75 37.9167C45.3609 37.9167 46.6667 36.6108 46.6667 35C46.6667 33.3892 45.3609 32.0833 43.75 32.0833C42.1392 32.0833 40.8334 33.3892 40.8334 35C40.8334 36.6108 42.1392 37.9167 43.75 37.9167Z" fill="white"/>
</g>
<defs>
<linearGradient id="paint0_linear" x1="30.1189" y1="62.3072" x2="65.2239" y2="27.2022" gradientUnits="userSpaceOnUse">
<stop stop-color="#3D64CD"/>
<stop offset="1" stop-color="#16D19F"/>
</linearGradient>
<clipPath id="clip0">
<rect width="70" height="70" fill="white"/>
</clipPath>
</defs>
</svg>
