<svg width="59" height="70" viewBox="0 0 59 70" fill="none" xmlns="http://www.w3.org/2000/svg">
<path d="M55.4123 56.9896C56.319 56.3185 57.0552 55.4476 57.5622 54.4459C58.0693 53.4442 58.3333 52.3394 58.3333 51.2191C58.3333 50.0989 58.0693 48.9941 57.5622 47.9924C57.0552 46.9907 56.319 46.1198 55.4123 45.4487C56.3121 44.7822 57.044 43.9189 57.5507 42.9263C58.0574 41.9336 58.3252 40.8386 58.3333 39.7266C58.2888 37.7813 57.4747 35.9309 56.0658 34.5731C54.6569 33.2153 52.7658 32.4585 50.7988 32.4652H30.625V25.2521C30.625 23.3391 29.8567 21.5044 28.4893 20.1517C27.1218 18.799 25.2672 18.0391 23.3333 18.0391H18.9583C18.5715 18.0391 18.2006 18.1911 17.9271 18.4616C17.6536 18.7321 17.5 19.0991 17.5 19.4817V35.3504H5.83331V58.4322H17.5C17.5 61.493 18.7291 64.4285 20.9171 66.5928C23.105 68.7572 26.0724 69.9731 29.1666 69.9731H50.7988C52.7658 69.9798 54.6569 69.223 56.0658 67.8652C57.4747 66.5073 58.2888 64.657 58.3333 62.7117C58.3252 61.5997 58.0574 60.5047 57.5507 59.512C57.044 58.5194 56.3121 57.6561 55.4123 56.9896Z" fill="url(#paint0_linear)"/>
<path d="M14.5834 32.4652H2.91673C1.3059 32.4652 6.10352e-05 33.757 6.10352e-05 35.3504V67.0877C6.10352e-05 68.6811 1.3059 69.9729 2.91673 69.9729H14.5834C16.1942 69.9729 17.5001 68.6811 17.5001 67.0877V35.3504C17.5001 33.757 16.1942 32.4652 14.5834 32.4652Z" fill="#E6F9FE"/>
<path d="M14.5834 64.2026H2.91673C2.14318 64.2026 1.40131 63.8987 0.854334 63.3576C0.307352 62.8165 6.10352e-05 62.0826 6.10352e-05 61.3174V67.0879C6.10352e-05 67.8531 0.307352 68.587 0.854334 69.1281C1.40131 69.6692 2.14318 69.9731 2.91673 69.9731H14.5834C15.3569 69.9731 16.0988 69.6692 16.6458 69.1281C17.1928 68.587 17.5001 67.8531 17.5001 67.0879V61.3174C17.5001 62.0826 17.1928 62.8165 16.6458 63.3576C16.0988 63.8987 15.3569 64.2026 14.5834 64.2026Z" fill="#CCF2FE"/>
<path d="M8.74998 64.2026C10.3608 64.2026 11.6667 62.9108 11.6667 61.3173C11.6667 59.7238 10.3608 58.432 8.74998 58.432C7.13915 58.432 5.83331 59.7238 5.83331 61.3173C5.83331 62.9108 7.13915 64.2026 8.74998 64.2026Z" fill="#67D9FB"/>
<path d="M20.4168 0.727783H26.2502V6.49817H20.4168V0.727783Z" fill="#01C0F9"/>
<path d="M8.89392 7.83978L13.0181 3.76013L17.1428 7.84028L13.0186 11.9199L8.89392 7.83978Z" fill="#01C0F9"/>
<path d="M29.5153 7.84219L33.64 3.76196L37.7637 7.84117L33.639 11.9214L29.5153 7.84219Z" fill="#01C0F9"/>
<defs>
<linearGradient id="paint0_linear" x1="13.6974" y1="66.2115" x2="50.4717" y2="29.0371" gradientUnits="userSpaceOnUse">
<stop stop-color="#398DC2"/>
<stop offset="1" stop-color="#24C8A9"/>
</linearGradient>
</defs>
</svg>
