<svg width="300" height="68" viewBox="0 0 300 68" fill="none" xmlns="http://www.w3.org/2000/svg">
<path d="M51.9891 40.724C53.9912 44.0248 57.1313 45.7037 61.4617 45.7037C65.3044 45.7037 67.0907 43.9716 67.0907 41.9694C67.0677 41.3078 66.8637 40.6652 66.501 40.1114C66.1383 39.5576 65.6307 39.1139 65.0334 38.8283C64.0211 38.2115 62.9282 37.738 61.7859 37.4213C60.8656 37.0429 58.7009 36.3394 57.6181 35.9059C51.7181 33.7403 48.4706 30.6562 48.4706 24.9711C48.4105 23.4847 48.7085 22.0057 49.3395 20.6586C49.9705 19.3115 50.9161 18.1358 52.0965 17.2306C54.6424 15.2458 57.8014 14.2121 61.0282 14.3081C66.4956 14.3081 70.6634 16.3654 73.5868 20.48L68.011 24.7011C66.4956 22.7521 64.2215 21.7786 61.2449 21.7786C58.4841 21.7786 56.6978 23.0773 56.6978 24.8646C56.6433 25.4099 56.7534 25.9591 57.0138 26.4413C57.2742 26.9235 57.6731 27.3167 58.159 27.5702C58.7551 27.8954 59.3502 28.1654 59.837 28.3821L62.5436 29.3024C63.789 29.7359 64.8718 30.1143 65.7921 30.4927C72.6665 33.0918 75.4264 36.2843 75.4264 41.6975C75.4264 48.6812 70.6634 53.2274 61.4075 53.2274C53.7744 53.2274 48.4705 49.8183 45.9255 44.8918L51.9891 40.724Z" fill="#170772"/>
<path d="M78.3963 38.9365C78.3198 37.0166 78.6518 35.1022 79.3702 33.3201C80.0887 31.538 81.1773 29.9288 82.5641 28.5987C83.9844 27.2727 85.6531 26.2409 87.474 25.5627C89.2949 24.8846 91.2321 24.5736 93.1737 24.6477C95.0198 24.5778 96.8606 24.8872 98.5824 25.5568C100.304 26.2263 101.87 27.2418 103.184 28.5405C104.498 29.8391 105.532 31.3934 106.221 33.1072C106.911 34.8211 107.242 36.6581 107.194 38.5049C107.194 39.4252 107.139 40.2903 107.085 41.1022H86.4619C86.6245 44.3497 89.4385 46.4622 93.7156 46.4622C96.1986 46.495 98.5932 45.5411 100.373 43.8098L105.082 48.3027C103.578 49.9041 101.757 51.1741 99.7345 52.0315C97.712 52.889 95.5328 53.315 93.3363 53.2824C88.8434 53.2824 85.2707 51.9819 82.5099 49.4378C79.75 46.8406 78.3963 43.4295 78.3963 39.1533V38.9365ZM99.0737 35.8525C99.0737 33.3085 96.4213 31.3044 93.1737 31.3044C89.6553 31.3044 86.787 33.3084 86.5703 35.8525H99.0737Z" fill="#170772"/>
<path d="M141.323 52.6325L129.632 25.3516H137.805L144.95 42.6731L152.041 25.3516H160.215L148.523 52.6325H141.323Z" fill="#170772"/>
<path d="M163.997 52.6326V14.9036H178.991C181.793 14.8201 184.523 15.8073 186.624 17.6644C187.634 18.4971 188.442 19.5489 188.986 20.7401C189.53 21.9313 189.796 23.2307 189.763 24.5398C189.763 28.1657 187.977 31.0349 184.946 32.1168C189.763 32.9838 192.524 36.6649 192.524 41.481C192.568 42.9737 192.296 44.4588 191.727 45.8394C191.158 47.2201 190.305 48.4652 189.222 49.4934C188.141 50.5394 186.859 51.3565 185.455 51.8959C184.05 52.4353 182.551 52.6858 181.048 52.6326H163.997ZM172.17 29.953H177.638C178.173 29.9779 178.708 29.8918 179.208 29.7C179.708 29.5082 180.163 29.2149 180.545 28.8385C180.926 28.4622 181.225 28.011 181.424 27.5133C181.622 27.0156 181.715 26.4822 181.697 25.9468C181.705 25.4235 181.606 24.9041 181.407 24.4205C181.207 23.9368 180.91 23.4991 180.535 23.1341C180.16 22.7691 179.715 22.4846 179.226 22.298C178.737 22.1114 178.215 22.0267 177.692 22.049H172.17V29.953ZM172.17 45.434H179.37C179.996 45.4665 180.621 45.3717 181.209 45.1555C181.797 44.9392 182.335 44.6059 182.79 44.1758C183.246 43.7456 183.609 43.2276 183.858 42.653C184.108 42.0783 184.238 41.4591 184.241 40.8327C184.241 38.2335 182.185 36.3929 179.316 36.3929H172.17V45.434Z" fill="#170772"/>
<path d="M197.009 52.6326V14.9036H205.075V52.6326H197.009Z" fill="#170772"/>
<path d="M235.167 28.7606C236.599 30.0461 237.738 31.6257 238.504 33.3915C239.27 35.1572 239.646 37.0676 239.606 38.9919C239.641 40.9234 239.263 42.8401 238.497 44.6138C237.732 46.3875 236.596 47.9772 235.167 49.2765C232.231 51.9577 228.398 53.4443 224.422 53.4443C220.446 53.4443 216.614 51.9577 213.677 49.2765C212.265 47.9664 211.145 46.3735 210.389 44.6014C209.634 42.8294 209.26 40.918 209.293 38.9919C209.255 37.073 209.627 35.1681 210.383 33.4039C211.139 31.6398 212.262 30.0569 213.677 28.7606C216.598 26.0475 220.436 24.5396 224.422 24.5396C228.408 24.5396 232.247 26.0475 235.167 28.7606H235.167ZM219.416 44.08C220.76 45.3986 222.567 46.1373 224.45 46.1373C226.332 46.1373 228.14 45.3986 229.484 44.08C230.148 43.4118 230.673 42.6174 231.026 41.7437C231.379 40.8699 231.554 39.9343 231.541 38.9919C231.559 38.0568 231.386 37.1279 231.032 36.2621C230.678 35.3963 230.151 34.6119 229.484 33.9571C228.827 33.2887 228.043 32.7579 227.179 32.3955C226.315 32.0332 225.387 31.8466 224.45 31.8466C223.513 31.8466 222.585 32.0332 221.72 32.3955C220.856 32.7579 220.073 33.2887 219.416 33.9571C218.748 34.6118 218.221 35.3961 217.867 36.2619C217.513 37.1278 217.34 38.0568 217.359 38.9919C217.34 39.935 217.513 40.8721 217.866 41.7466C218.22 42.6211 218.747 43.4149 219.416 44.08Z" fill="#170772"/>
<path d="M269.046 29.5724L263.957 34.6073C263.173 33.7155 262.207 33.0028 261.123 32.5173C260.04 32.0317 258.864 31.7848 257.677 31.7932C255.813 31.8292 254.038 32.5949 252.732 33.9259C251.427 35.2568 250.695 37.0467 250.695 38.9111C250.695 40.7754 251.427 42.5653 252.732 43.8962C254.038 45.2272 255.813 45.9929 257.677 46.0289C258.865 46.0369 260.04 45.7896 261.123 45.3038C262.207 44.818 263.173 44.1049 263.957 43.2129L269.046 48.2478C267.638 49.8758 265.891 51.1751 263.926 52.0543C261.962 52.9334 259.829 53.3709 257.677 53.3358C253.701 53.439 249.846 51.959 246.96 49.2212C245.589 47.8821 244.5 46.2824 243.756 44.5162C243.013 42.75 242.63 40.853 242.63 38.9367C242.63 37.0203 243.013 35.1233 243.756 33.3572C244.5 31.591 245.589 29.9913 246.96 28.6521C249.84 25.8991 253.694 24.4003 257.677 24.4843C259.829 24.4497 261.962 24.8874 263.926 25.7665C265.89 26.6456 267.638 27.9448 269.046 29.5724Z" fill="#170772"/>
<path d="M272.664 52.6326V14.9036H280.729V35.7446L289.715 25.3517H299.08L288.2 37.6935L300 52.6326H290.906L283.004 42.5648L280.729 45.0005V52.6326L272.664 52.6326Z" fill="#170772"/>
<path d="M127.107 32.3702V25.1345H119.768C117.451 25.1345 115.228 26.0551 113.59 27.6936C111.951 29.3322 111.031 31.5546 111.031 33.8718V52.6323H119.096L119.072 35.0545C119.072 34.7021 119.141 34.3532 119.275 34.0275C119.41 33.7019 119.607 33.406 119.856 33.1567C120.105 32.9074 120.401 32.7096 120.726 32.5746C121.052 32.4397 121.4 32.3703 121.753 32.3703L127.107 32.3702Z" fill="#170772"/>
<path d="M34.459 14.5169V3.29235C34.459 2.41917 34.1121 1.58175 33.4947 0.964314C32.8772 0.346877 32.0398 0 31.1666 0H19.9421C19.0689 0 18.2315 0.346877 17.6141 0.964314C16.9966 1.58175 16.6498 2.41917 16.6498 3.29235V13.3554C16.6498 13.7877 16.5646 14.2159 16.3992 14.6153C16.2337 15.0148 15.9912 15.3777 15.6855 15.6834C15.3797 15.9892 15.0168 16.2317 14.6173 16.3971C14.2179 16.5626 13.7898 16.6478 13.3574 16.6478H3.29431C2.42113 16.6478 1.5837 16.9946 0.966267 17.6121C0.34883 18.2295 0.00195312 19.0669 0.00195312 19.9401V31.1647C0.00195313 32.0378 0.34883 32.8753 0.966267 33.4927C1.5837 34.1102 2.42113 34.457 3.29431 34.457H13.3574C14.2306 34.457 15.068 34.8039 15.6855 35.4213C16.3029 36.0388 16.6498 36.8762 16.6498 37.7494V46.6509C16.6498 47.5241 16.3029 48.3615 15.6855 48.979C15.068 49.5964 14.2306 49.9433 13.3574 49.9433H3.29431C2.42113 49.9433 1.5837 50.2902 0.966267 50.9076C0.34883 51.525 0.00195312 52.3624 0.00195312 53.2356V64.4601C0.00195313 65.3333 0.34883 66.1707 0.966267 66.7882C1.5837 67.4056 2.42113 67.7525 3.29431 67.7525H14.5189C15.3921 67.7525 16.2295 67.4056 16.8469 66.7882C17.4644 66.1707 17.8112 65.3333 17.8112 64.4601V54.3971C17.8112 53.9648 17.8964 53.5367 18.0619 53.1372C18.2273 52.7378 18.4698 52.3748 18.7755 52.0691C19.0813 51.7634 19.4442 51.5208 19.8437 51.3554C20.2431 51.1899 20.6712 51.1048 21.1036 51.1048H31.1666C32.0398 51.1048 32.8772 50.7579 33.4947 50.1405C34.1121 49.523 34.459 48.6856 34.459 47.8124V36.5879C34.459 35.7147 34.1121 34.8773 33.4947 34.2599C32.8772 33.6424 32.0398 33.2956 31.1666 33.2956H21.1036C20.6712 33.2956 20.2431 33.2104 19.8437 33.0449C19.4442 32.8795 19.0813 32.637 18.7755 32.3313C18.4698 32.0255 18.2273 31.6626 18.0619 31.2631C17.8964 30.8637 17.8112 30.4356 17.8112 30.0032V21.1016C17.8112 20.2284 18.1581 19.391 18.7755 18.7735C19.393 18.1561 20.2304 17.8092 21.1036 17.8092H31.1666C32.0398 17.8092 32.8772 17.4623 33.4947 16.8449C34.1121 16.2275 34.459 15.39 34.459 14.5169Z" fill="url(#paint0_linear)"/>
<path style="mix-blend-mode:multiply" opacity="0.6" d="M16.656 46.6489V37.752C16.6563 37.3188 16.5712 36.8897 16.4055 36.4894C16.2399 36.089 15.9969 35.7253 15.6905 35.4189C15.3842 35.1126 15.0204 34.8696 14.6201 34.7039C14.2197 34.5382 13.7907 34.4531 13.3574 34.4534H3.13647L18.5724 19.0059C18.0827 19.5922 17.8154 20.3325 17.8175 21.0965V30.005C17.8171 30.4368 17.9018 30.8644 18.0669 31.2634C18.2319 31.6623 18.474 32.0248 18.7793 32.3301C19.0846 32.6354 19.4471 32.8775 19.8461 33.0426C20.2451 33.2076 20.6727 33.2923 21.1044 33.292H31.1628C31.2326 33.29 31.3026 33.2939 31.3718 33.3036L15.6919 48.9835C16.3091 48.3632 16.6557 47.5239 16.656 46.6489Z" fill="url(#paint1_linear)"/>
<path style="mix-blend-mode:multiply" opacity="0.6" d="M15.6919 48.9829L0.0121081 64.6628C0.00244517 64.5975 -0.00144729 64.5314 0.000478121 64.4654V53.2339C0.00231245 52.3607 0.350806 51.524 0.969351 50.9076C1.5879 50.2912 2.42588 49.9457 3.29909 49.947H13.3574C14.2324 49.9467 15.0717 49.6001 15.6919 48.9829Z" fill="url(#paint2_linear)"/>
<defs>
<linearGradient id="paint0_linear" x1="1.75776" y1="65.3895" x2="33.4079" y2="0.92775" gradientUnits="userSpaceOnUse">
<stop stop-color="#4059D1"/>
<stop offset="1" stop-color="#11DF99"/>
</linearGradient>
<linearGradient id="paint1_linear" x1="29.648" y1="21.4788" x2="5.93561" y2="45.1912" gradientUnits="userSpaceOnUse">
<stop offset="0.02703" stop-color="#4059D1"/>
<stop offset="1" stop-color="#4059D1" stop-opacity="0"/>
</linearGradient>
<linearGradient id="paint2_linear" x1="2351.93" y1="2709.21" x2="1806.32" y2="3255.23" gradientUnits="userSpaceOnUse">
<stop offset="0.02703" stop-color="#4059D1"/>
<stop offset="1" stop-color="#4059D1" stop-opacity="0"/>
</linearGradient>
</defs>
</svg>
