<svg width="213" height="48" viewBox="0 0 213 48" fill="none" xmlns="http://www.w3.org/2000/svg">
<path d="M36.8324 28.8515C38.2508 31.19 40.4755 32.3795 43.5434 32.3795C46.2658 32.3795 47.5313 31.1523 47.5313 29.7339C47.515 29.2651 47.3705 28.8099 47.1135 28.4175C46.8566 28.0252 46.497 27.7108 46.0738 27.5085C45.3566 27.0715 44.5824 26.7361 43.7731 26.5117C43.1211 26.2436 41.5875 25.7452 40.8203 25.4381C36.6404 23.9038 34.3397 21.7189 34.3397 17.6912C34.2971 16.6382 34.5082 15.5903 34.9553 14.636C35.4023 13.6816 36.0722 12.8487 36.9085 12.2073C38.7122 10.8012 40.9502 10.0689 43.2362 10.1369C47.1097 10.1369 50.0624 11.5944 52.1335 14.5094L48.1833 17.4999C47.1097 16.1191 45.4986 15.4295 43.3898 15.4295C41.4339 15.4295 40.1683 16.3495 40.1683 17.6157C40.1297 18.0021 40.2077 18.3912 40.3922 18.7328C40.5767 19.0744 40.8593 19.353 41.2035 19.5326C41.6258 19.7629 42.0475 19.9542 42.3923 20.1078L44.3098 20.7598C45.1922 21.0669 45.9593 21.335 46.6113 21.603C51.4815 23.4444 53.4368 25.7061 53.4368 29.5412C53.4368 34.4889 50.0624 37.7097 43.505 37.7097C38.0973 37.7097 34.3396 35.2945 32.5366 31.8042L36.8324 28.8515Z" fill="white"/>
<path d="M55.5408 27.5853C55.4867 26.225 55.7218 24.8688 56.2309 23.6063C56.7399 22.3437 57.5111 21.2036 58.4936 20.2613C59.4998 19.3219 60.682 18.5909 61.972 18.1105C63.2621 17.63 64.6345 17.4097 66.0101 17.4622C67.318 17.4127 68.6221 17.6319 69.8419 18.1063C71.0617 18.5806 72.1713 19.3 73.1022 20.2201C74.033 21.1401 74.7653 22.2413 75.2539 23.4555C75.7424 24.6697 75.9768 25.9711 75.9426 27.2795C75.9426 27.9315 75.9042 28.5444 75.8658 29.1196H61.255C61.3702 31.4203 63.3638 32.9169 66.394 32.9169C68.1531 32.9402 69.8496 32.2643 71.1107 31.0378L74.4467 34.2209C73.3813 35.3554 72.091 36.2551 70.6581 36.8626C69.2253 37.47 67.6814 37.7719 66.1253 37.7488C62.9422 37.7488 60.4111 36.8274 58.4552 35.025C56.4999 33.185 55.5408 30.7684 55.5408 27.7388V27.5853ZM70.19 25.4003C70.19 23.598 68.3109 22.1782 66.0101 22.1782C63.5174 22.1782 61.4854 23.598 61.3318 25.4003H70.19Z" fill="white"/>
<path d="M100.122 37.2879L91.8394 17.9604H97.6297L102.692 30.2321L107.716 17.9604H113.507L105.223 37.2879H100.122Z" fill="white"/>
<path d="M116.186 37.288V10.5584H126.808C128.793 10.4992 130.727 11.1986 132.215 12.5143C132.931 13.1042 133.504 13.8494 133.889 14.6933C134.274 15.5373 134.463 16.4578 134.439 17.3853C134.439 19.9541 133.174 21.9868 131.027 22.7533C134.439 23.3675 136.395 25.9754 136.395 29.3875C136.427 30.445 136.234 31.4971 135.831 32.4752C135.428 33.4534 134.823 34.3355 134.056 35.064C133.29 35.805 132.382 36.3839 131.387 36.766C130.392 37.1481 129.33 37.3257 128.265 37.288H116.186ZM121.976 21.2203H125.849C126.228 21.238 126.607 21.177 126.962 21.0411C127.316 20.9052 127.638 20.6974 127.909 20.4308C128.179 20.1642 128.391 19.8445 128.531 19.4919C128.672 19.1393 128.738 18.7614 128.725 18.3821C128.731 18.0114 128.661 17.6434 128.519 17.3008C128.378 16.9581 128.168 16.648 127.902 16.3894C127.636 16.1308 127.321 15.9293 126.974 15.7971C126.628 15.6649 126.258 15.6048 125.888 15.6206H121.976V21.2203ZM121.976 32.188H127.076C127.52 32.211 127.963 32.1439 128.379 31.9907C128.796 31.8375 129.177 31.6014 129.5 31.2966C129.822 30.9919 130.08 30.6248 130.256 30.2177C130.433 29.8106 130.525 29.3719 130.528 28.9281C130.528 27.0867 129.071 25.7828 127.038 25.7828H121.976V32.188Z" fill="white"/>
<path d="M139.573 37.2882V10.5586H145.287V37.2882H139.573Z" fill="white"/>
<path d="M166.606 20.3757C167.621 21.2864 168.428 22.4055 168.97 23.6565C169.513 24.9075 169.779 26.2609 169.751 27.6242C169.776 28.9926 169.508 30.3505 168.966 31.6071C168.424 32.8637 167.619 33.9899 166.606 34.9104C164.526 36.81 161.811 37.8632 158.994 37.8632C156.177 37.8632 153.462 36.81 151.382 34.9104C150.381 33.9823 149.588 32.8537 149.053 31.5983C148.517 30.3429 148.253 28.9888 148.276 27.6242C148.249 26.2647 148.512 24.9152 149.048 23.6653C149.584 22.4155 150.379 21.2941 151.382 20.3757C153.451 18.4536 156.17 17.3853 158.994 17.3853C161.818 17.3853 164.538 18.4536 166.606 20.3757H166.606ZM155.447 31.2289C156.399 32.1631 157.68 32.6864 159.014 32.6864C160.348 32.6864 161.628 32.1631 162.58 31.2289C163.051 30.7555 163.422 30.1927 163.673 29.5737C163.923 28.9547 164.047 28.2919 164.038 27.6242C164.05 26.9617 163.928 26.3036 163.677 25.6902C163.427 25.0768 163.053 24.5211 162.58 24.0572C162.115 23.5837 161.56 23.2076 160.947 22.9509C160.335 22.6942 159.678 22.562 159.014 22.562C158.35 22.562 157.693 22.6942 157.08 22.9509C156.468 23.2076 155.913 23.5837 155.447 24.0572C154.974 24.521 154.601 25.0767 154.35 25.6901C154.099 26.3035 153.977 26.9617 153.99 27.6242C153.977 28.2924 154.099 28.9562 154.35 29.5758C154.6 30.1953 154.974 30.7577 155.447 31.2289Z" fill="white"/>
<path d="M190.608 20.9509L187.003 24.5179C186.448 23.8861 185.763 23.3811 184.996 23.0372C184.228 22.6932 183.395 22.5183 182.554 22.5242C181.234 22.5497 179.976 23.0922 179.051 24.0351C178.126 24.978 177.608 26.2461 177.608 27.5669C177.608 28.8877 178.126 30.1558 179.051 31.0987C179.976 32.0416 181.234 32.5841 182.554 32.6096C183.395 32.6153 184.228 32.4401 184.996 32.0959C185.763 31.7517 186.448 31.2465 187.003 30.6146L190.608 34.1816C189.611 35.335 188.373 36.2555 186.981 36.8784C185.59 37.5012 184.079 37.8111 182.554 37.7863C179.737 37.8594 177.006 36.8109 174.961 34.8713C173.99 33.9225 173.219 32.7892 172.692 31.5379C172.165 30.2867 171.894 28.9427 171.894 27.5851C171.894 26.2274 172.165 24.8835 172.692 23.6322C173.219 22.3809 173.99 21.2476 174.961 20.2989C177.002 18.3485 179.732 17.2866 182.554 17.3461C184.078 17.3216 185.59 17.6317 186.981 18.2545C188.373 18.8773 189.611 19.7977 190.608 20.9509Z" fill="white"/>
<path d="M193.172 37.2882V10.5586H198.886V25.3237L205.252 17.9607H211.886L204.179 26.7044L212.538 37.2882H206.095L200.497 30.1555L198.886 31.8811V37.2881L193.172 37.2882Z" fill="white"/>
<path d="M90.05 22.9331V17.8069H84.8507C83.209 17.8069 81.6345 18.4591 80.4737 19.6199C79.3128 20.7808 78.6606 22.3552 78.6606 23.9969V37.288H84.3748L84.3579 24.8348C84.3576 24.5852 84.4064 24.3379 84.5017 24.1072C84.597 23.8765 84.7368 23.6669 84.9132 23.4903C85.0896 23.3136 85.2991 23.1735 85.5296 23.0779C85.7602 22.9823 86.0074 22.9331 86.257 22.9331L90.05 22.9331Z" fill="white"/>
<path d="M24.4134 10.2846V2.33251C24.4134 1.71389 24.1677 1.12061 23.7302 0.683179C23.2928 0.245749 22.6995 0 22.0809 0H14.1288C13.5102 0 12.9169 0.245749 12.4795 0.683179C12.042 1.12061 11.7963 1.71389 11.7963 2.33251V9.46177C11.7963 9.76808 11.736 10.0714 11.6187 10.3544C11.5015 10.6374 11.3297 10.8945 11.1131 11.1111C10.8965 11.3277 10.6394 11.4995 10.3564 11.6167C10.0734 11.734 9.77008 11.7943 9.46377 11.7943H2.33446C1.71584 11.7943 1.12256 12.04 0.685132 12.4775C0.247702 12.9149 0.00195312 13.5082 0.00195312 14.1268V22.079C0.00195313 22.6976 0.247702 23.2909 0.685132 23.7283C1.12256 24.1657 1.71584 24.4115 2.33446 24.4115H9.46377C10.0824 24.4115 10.6757 24.6572 11.1131 25.0946C11.5505 25.5321 11.7963 26.1254 11.7963 26.744V33.0504C11.7963 33.669 11.5505 34.2623 11.1131 34.6997C10.6757 35.1371 10.0824 35.3829 9.46377 35.3829H2.33446C1.71584 35.3829 1.12256 35.6286 0.685132 36.0661C0.247702 36.5035 0.00195312 37.0968 0.00195312 37.7154V45.6675C0.00195313 46.2861 0.247702 46.8794 0.685132 47.3168C1.12256 47.7543 1.71584 48 2.33446 48H10.2866C10.9052 48 11.4985 47.7543 11.936 47.3168C12.3734 46.8794 12.6191 46.2861 12.6191 45.6675V38.5383C12.6191 38.2319 12.6795 37.9286 12.7967 37.6456C12.9139 37.3627 13.0857 37.1055 13.3023 36.8889C13.5189 36.6723 13.776 36.5005 14.059 36.3833C14.342 36.2661 14.6453 36.2057 14.9516 36.2057H22.0809C22.6995 36.2057 23.2928 35.96 23.7302 35.5226C24.1677 35.0851 24.4134 34.4919 24.4134 33.8732V25.9211C24.4134 25.3025 24.1677 24.7092 23.7302 24.2718C23.2928 23.8344 22.6995 23.5886 22.0809 23.5886H14.9516C14.6453 23.5886 14.342 23.5283 14.059 23.4111C13.776 23.2938 13.5189 23.122 13.3023 22.9054C13.0857 22.6888 12.9139 22.4317 12.7967 22.1487C12.6795 21.8657 12.6191 21.5624 12.6191 21.2561V14.9497C12.6191 14.331 12.8649 13.7377 13.3023 13.3003C13.7397 12.8629 14.333 12.6171 14.9516 12.6171H22.0809C22.6995 12.6171 23.2928 12.3714 23.7302 11.934C24.1677 11.4965 24.4134 10.9033 24.4134 10.2846Z" fill="url(#paint0_linear)"/>
<path style="mix-blend-mode:multiply" opacity="0.6" d="M11.8002 33.0486V26.7455C11.8004 26.4386 11.7401 26.1346 11.6228 25.851C11.5054 25.5674 11.3333 25.3097 11.1162 25.0926C10.8992 24.8756 10.6415 24.7034 10.3579 24.5861C10.0742 24.4687 9.77026 24.4084 9.46331 24.4086H2.22217L13.1579 13.4646C12.811 13.88 12.6216 14.4045 12.6231 14.9457V21.2571C12.6228 21.563 12.6829 21.8659 12.7998 22.1486C12.9167 22.4312 13.0882 22.688 13.3045 22.9043C13.5208 23.1206 13.7776 23.2921 14.0603 23.4091C14.3429 23.526 14.6459 23.586 14.9518 23.5857H22.0777C22.1272 23.5844 22.1767 23.5871 22.2258 23.594L11.1172 34.7026C11.5545 34.2631 11.8 33.6685 11.8002 33.0486Z" fill="url(#paint1_linear)"/>
<path style="mix-blend-mode:multiply" opacity="0.6" d="M11.1171 34.7026L0.00857813 45.8112C0.00173231 45.7649 -0.00102535 45.7182 0.00033873 45.6714V37.7143C0.00163828 37.0957 0.248533 36.5029 0.686748 36.0662C1.12496 35.6295 1.71864 35.3847 2.33728 35.3856H9.46321C10.0831 35.3854 10.6777 35.1399 11.1171 34.7026Z" fill="url(#paint2_linear)"/>
<defs>
<linearGradient id="paint0_linear" x1="1.24588" y1="46.3259" x2="23.6688" y2="0.657278" gradientUnits="userSpaceOnUse">
<stop stop-color="#4059D1"/>
<stop offset="1" stop-color="#11DF99"/>
</linearGradient>
<linearGradient id="paint1_linear" x1="21.0046" y1="15.2166" x2="4.20525" y2="32.0159" gradientUnits="userSpaceOnUse">
<stop offset="0.02703" stop-color="#4059D1"/>
<stop offset="1" stop-color="#4059D1" stop-opacity="0"/>
</linearGradient>
<linearGradient id="paint2_linear" x1="1666.25" y1="1919.37" x2="1279.71" y2="2306.21" gradientUnits="userSpaceOnUse">
<stop offset="0.02703" stop-color="#4059D1"/>
<stop offset="1" stop-color="#4059D1" stop-opacity="0"/>
</linearGradient>
</defs>
</svg>
