<svg width="26" height="26" viewBox="0 0 26 26" fill="none" xmlns="http://www.w3.org/2000/svg">
<path d="M24.3308 6.51339C23.4971 6.88319 22.6009 7.1331 21.6606 7.24548C22.6203 6.67007 23.3576 5.75896 23.7047 4.67324C22.8063 5.20609 21.8114 5.59299 20.7523 5.80145C19.9043 4.89786 18.6961 4.33331 17.3588 4.33331C14.7912 4.33331 12.7093 6.41491 12.7093 8.98249C12.7093 9.34687 12.7505 9.70173 12.8298 10.042C8.96577 9.84813 5.5399 7.99718 3.24685 5.18428C2.84663 5.87094 2.61735 6.66959 2.61735 7.52166C2.61735 9.13469 3.43812 10.5577 4.68567 11.3916C3.92361 11.3673 3.20663 11.1582 2.57985 10.81C2.5794 10.8294 2.5794 10.8488 2.5794 10.8684C2.5794 13.1211 4.18203 15.0001 6.3089 15.4273C5.91879 15.5336 5.50804 15.5904 5.08402 15.5904C4.78444 15.5904 4.49319 15.5612 4.20925 15.507C4.80092 17.354 6.51791 18.6983 8.55242 18.7357C6.96125 19.9828 4.95655 20.7261 2.77825 20.7261C2.40297 20.7261 2.03289 20.704 1.66917 20.661C3.72671 21.9802 6.17058 22.75 8.79613 22.75C17.3478 22.75 22.0244 15.6655 22.0244 9.52159C22.0244 9.32005 22.0198 9.11953 22.0108 8.92009C22.9193 8.26458 23.7076 7.44575 24.3308 6.51339Z" fill="#2E2E2E"/>
</svg>
